<mxfile host="app.diagrams.net" agent="Mozilla/5.0 (Windows NT 10.0; Win64; x64) AppleWebKit/537.36 (KHTML, like Gecko) Chrome/138.0.0.0 Safari/537.36 Edg/138.0.0.0" version="28.0.6">
  <diagram name="PÃ¡gina-1" id="pOeFXsEX-jav89Gi-onD">
    <mxGraphModel dx="978" dy="554" grid="1" gridSize="10" guides="1" tooltips="1" connect="1" arrows="1" fold="1" page="1" pageScale="1" pageWidth="827" pageHeight="1169" math="0" shadow="0">
      <root>
        <mxCell id="0" />
        <mxCell id="1" parent="0" />
        <mxCell id="ZStiPrJWH0p1QNw3at66-1" value="" style="ellipse;html=1;shape=startState;fillColor=#000000;strokeColor=#ff0000;" vertex="1" parent="1">
          <mxGeometry x="260" y="80" width="30" height="30" as="geometry" />
        </mxCell>
        <mxCell id="ZStiPrJWH0p1QNw3at66-2" value="" style="edgeStyle=orthogonalEdgeStyle;html=1;verticalAlign=bottom;endArrow=open;endSize=8;strokeColor=#ff0000;rounded=0;entryX=0.5;entryY=0;entryDx=0;entryDy=0;" edge="1" source="ZStiPrJWH0p1QNw3at66-1" parent="1" target="ZStiPrJWH0p1QNw3at66-3">
          <mxGeometry relative="1" as="geometry">
            <mxPoint x="275" y="170" as="targetPoint" />
          </mxGeometry>
        </mxCell>
        <mxCell id="ZStiPrJWH0p1QNw3at66-3" value="Verde" style="swimlane;fontStyle=1;align=center;verticalAlign=middle;childLayout=stackLayout;horizontal=1;startSize=30;horizontalStack=0;resizeParent=0;resizeLast=1;container=0;fontColor=#000000;collapsible=0;rounded=1;arcSize=30;strokeColor=#ff0000;fillColor=#ffffc0;swimlaneFillColor=#ffffc0;dropTarget=0;" vertex="1" parent="1">
          <mxGeometry x="195" y="180" width="160" height="60" as="geometry" />
        </mxCell>
        <mxCell id="ZStiPrJWH0p1QNw3at66-5" value="" style="edgeStyle=orthogonalEdgeStyle;html=1;verticalAlign=bottom;endArrow=open;endSize=8;strokeColor=#ff0000;rounded=0;entryX=0.5;entryY=0;entryDx=0;entryDy=0;exitX=0.5;exitY=1;exitDx=0;exitDy=0;" edge="1" source="ZStiPrJWH0p1QNw3at66-3" parent="1" target="ZStiPrJWH0p1QNw3at66-7">
          <mxGeometry relative="1" as="geometry">
            <mxPoint x="275" y="300" as="targetPoint" />
            <mxPoint x="310" y="270" as="sourcePoint" />
            <Array as="points">
              <mxPoint x="275" y="280" />
              <mxPoint x="275" y="280" />
            </Array>
          </mxGeometry>
        </mxCell>
        <mxCell id="ZStiPrJWH0p1QNw3at66-6" value="passou 30 s" style="edgeLabel;html=1;align=center;verticalAlign=middle;resizable=0;points=[];" vertex="1" connectable="0" parent="ZStiPrJWH0p1QNw3at66-5">
          <mxGeometry x="-0.1075" y="-4" relative="1" as="geometry">
            <mxPoint as="offset" />
          </mxGeometry>
        </mxCell>
        <mxCell id="ZStiPrJWH0p1QNw3at66-10" value="" style="edgeStyle=orthogonalEdgeStyle;rounded=0;orthogonalLoop=1;jettySize=auto;html=1;strokeColor=light-dark(#000000,#FF9090);" edge="1" parent="1" source="ZStiPrJWH0p1QNw3at66-7" target="ZStiPrJWH0p1QNw3at66-9">
          <mxGeometry relative="1" as="geometry" />
        </mxCell>
        <mxCell id="ZStiPrJWH0p1QNw3at66-11" value="Passou 1 min" style="edgeLabel;html=1;align=center;verticalAlign=middle;resizable=0;points=[];" vertex="1" connectable="0" parent="ZStiPrJWH0p1QNw3at66-10">
          <mxGeometry x="-0.1378" y="-1" relative="1" as="geometry">
            <mxPoint as="offset" />
          </mxGeometry>
        </mxCell>
        <mxCell id="ZStiPrJWH0p1QNw3at66-7" value="Amarelo" style="swimlane;fontStyle=1;align=center;verticalAlign=middle;childLayout=stackLayout;horizontal=1;startSize=30;horizontalStack=0;resizeParent=0;resizeLast=1;container=0;fontColor=#000000;collapsible=0;rounded=1;arcSize=30;strokeColor=#ff0000;fillColor=#ffffc0;swimlaneFillColor=#ffffc0;dropTarget=0;" vertex="1" parent="1">
          <mxGeometry x="195" y="340" width="160" height="60" as="geometry" />
        </mxCell>
        <mxCell id="ZStiPrJWH0p1QNw3at66-12" style="edgeStyle=orthogonalEdgeStyle;rounded=0;orthogonalLoop=1;jettySize=auto;html=1;entryX=1;entryY=0.5;entryDx=0;entryDy=0;strokeColor=light-dark(#000000,#FF9090);" edge="1" parent="1" source="ZStiPrJWH0p1QNw3at66-9" target="ZStiPrJWH0p1QNw3at66-3">
          <mxGeometry relative="1" as="geometry">
            <Array as="points">
              <mxPoint x="460" y="520" />
              <mxPoint x="460" y="210" />
            </Array>
          </mxGeometry>
        </mxCell>
        <mxCell id="ZStiPrJWH0p1QNw3at66-13" value="Passou 15 s" style="edgeLabel;html=1;align=center;verticalAlign=middle;resizable=0;points=[];" vertex="1" connectable="0" parent="ZStiPrJWH0p1QNw3at66-12">
          <mxGeometry x="-0.0562" y="-1" relative="1" as="geometry">
            <mxPoint as="offset" />
          </mxGeometry>
        </mxCell>
        <mxCell id="ZStiPrJWH0p1QNw3at66-9" value="Vermelho" style="swimlane;fontStyle=1;align=center;verticalAlign=middle;childLayout=stackLayout;horizontal=1;startSize=30;horizontalStack=0;resizeParent=0;resizeLast=1;container=0;fontColor=#000000;collapsible=0;rounded=1;arcSize=30;strokeColor=#ff0000;fillColor=#ffffc0;swimlaneFillColor=#ffffc0;dropTarget=0;" vertex="1" parent="1">
          <mxGeometry x="195" y="490" width="160" height="60" as="geometry" />
        </mxCell>
      </root>
    </mxGraphModel>
  </diagram>
</mxfile>
